<?xml version="1.0" encoding="utf-8"?>
<!-- Generator: Adobe Illustrator 27.2.0, SVG Export Plug-In . SVG Version: 6.00 Build 0)  -->
<svg version="1.1" id="Logo_White" xmlns="http://www.w3.org/2000/svg" xmlns:xlink="http://www.w3.org/1999/xlink" x="0px" y="0px"
	 viewBox="0 0 185.6 70.7" style="enable-background:new 0 0 185.6 70.7;" xml:space="preserve">
<style type="text/css">
	.st0{fillRule:evenodd;clip-rule:evenodd;fill:#009FE3;}
</style>
<path id="Pfad_1" class="st0" d="M150.3,0c-19.5,0-35.4,15.8-35.4,35.3s15.8,35.4,35.3,35.4c19.5,0,35.4-15.8,35.4-35.3c0,0,0,0,0,0
	C185.6,15.8,169.8,0,150.3,0C150.3,0,150.3,0,150.3,0z M152.8,57.9h-5.6c-8.1-0.3-16-5.8-16-11.7c-0.1-1.8,1.2-3.4,2.9-3.8h3.4
	c1.6,0,2.8,0.6,3.9,2.5c1.4,2.1,3.7,3.4,6.2,3.4h4.7c4.7,0,7-0.9,7-4.6s-2.4-4.7-7-4.7h-18.5c-1.5,0-2.7-1.2-2.7-2.7V17
	c-0.1-1.5,1.1-2.7,2.6-2.8c0,0,0.1,0,0.1,0h19.4h0.1c0.2,0,0.3,0,0.4,0c3.1,0,5.6,2.7,4.8,5.6c-0.4,1.6-1.7,2.9-3.4,3l-0.2,0h-14.2
	v7.8h12.7c10.6,0,16.8,4.1,16.8,13.8S163.4,57.9,152.8,57.9z M166,22.9c-2.4,0.1-4.4-1.8-4.5-4.2c-0.1-2.4,1.8-4.4,4.2-4.5
	c2.4-0.1,4.4,1.8,4.5,4.2c0,0,0,0.1,0,0.1C170.3,20.9,168.4,22.8,166,22.9L166,22.9z"/>
<g id="Gruppe_1" transform="translate(0 14.185)">
	<path id="Pfad_2" class="st0" d="M0,35.7c0,0.6,0.5,1.2,1.2,1.2c0,0,0,0,0,0h11.9c10.2,0,15.2-4.4,15.2-14
		c0-9.6-4.8-14.2-12.5-14.2c-2.2,0-4.4,0.4-6.5,1.1C9.1,9.9,8.8,9.8,8.7,9.5c0,0,0-0.1,0-0.1V1.5C8.7,0.7,8.1,0,7.2,0l0,0H1.5
		C0.6,0,0,0.7,0,1.5l0,0L0,35.7z M8.7,16.4c0-0.6,0.4-1,0.9-1.2c1.3-0.5,2.7-0.7,4.1-0.8c5,0,8.2,2.6,8.2,8.5c0,5.8-3.2,8.5-7.8,8.5
		H9.5c-0.4,0-0.8-0.4-0.8-0.8c0,0,0,0,0,0L8.7,16.4z"/>
	<path id="Pfad_3" class="st0" d="M37.9,39.1c-0.6,0-2,0-3,0H34c-0.8,0-1.8,0.3-1.8,1.3v1.9c0,1.4,1.7,1.6,2.5,1.6c1.7,0,1,0,3,0
		c5.9,0,10.3-1.2,13.8-12.2l6.4-21.6c0.2-0.6-0.2-1.2-0.8-1.4c-0.1,0-0.2,0-0.3,0h-4.9c-0.9,0-1.7,0.7-1.9,1.6L45.3,26
		c-0.1,0.3-0.3,0.4-0.6,0.4c-1.8-0.2-3.2-1.8-4.6-6.5l-3-9.5c-0.3-0.9-1.1-1.5-2.1-1.6h-4.9c-0.6,0-1.1,0.4-1.1,1c0,0.1,0,0.3,0,0.4
		l3.5,10.9c2.5,8.3,5.8,10.8,10.4,11c0.3,0,0.5,0.3,0.5,0.6c0,0.1,0,0.1,0,0.2C42.3,35.8,41.5,39.1,37.9,39.1z"/>
	<path id="Pfad_4" class="st0" d="M77.4,36.6c0.7-0.1,1.3-0.7,1.3-1.5v-2.5c0-0.8-0.6-1.2-1.5-1.2H76c-1.1,0-1.5,0.1-2.8,0.1
		c-2.5,0-4.3-1.6-4.3-5.3v-12h6.5c0.8,0,1-0.6,1-1.4v-2.7c0-0.8-0.7-1.4-1.4-1.4c0,0,0,0,0,0h-6.3V1c0-0.8-0.6-1-1.5-1h-5.7
		C60.7,0,60,0.6,60,1.4c0,0,0,0,0,0.1v24.8c0,7.6,3.4,10.7,10.3,10.7h3.9C75.3,36.9,76.4,36.8,77.4,36.6L77.4,36.6z"/>
	<path id="Pfad_5" class="st0" d="M92.8,14.2c3.9,0,5.4,2,5.7,5.5c0,0.3-0.2,0.5-0.4,0.5c0,0,0,0,0,0H87.6c-0.3,0-0.5-0.2-0.5-0.5
		c0,0,0,0,0,0C87.4,16.2,88.9,14.2,92.8,14.2z M105.4,24.9c0.8,0,0.8-0.2,0.8-1.1v-1.2c0-8.6-4.8-13.9-13.7-13.9
		c-8.8,0-13.7,4.9-13.7,13.7c0,9.8,5.2,14.5,14.1,14.5c6.4,0,13.2-1.6,13.2-6.7c0-0.8-0.6-1.5-1.4-1.5c0,0,0,0,0,0H101
		c-1.1,0-2.1,0.4-2.7,1.3c-0.9,0.9-2.7,1.2-4.8,1.2c-4,0-5.5-1.4-5.9-5.7c0-0.2,0.2-0.5,0.4-0.5c0,0,0,0,0,0L105.4,24.9L105.4,24.9z
		"/>
</g>
</svg>
